<svg width="174" height="52" viewBox="0 0 174 52" fill="none" xmlns="http://www.w3.org/2000/svg">
<path d="M27.5576 26H41.3076" stroke="#8B5CF6" stroke-width="1.88" stroke-linecap="round" stroke-linejoin="round"/>
<path d="M34.4326 19.125V32.875" stroke="#8B5CF6" stroke-width="1.88" stroke-linecap="round" stroke-linejoin="round"/>
<path d="M67.1428 20.3636V32H65.2678L59.7848 24.0739H59.6882V32H57.5803V20.3636H59.4666L64.9439 28.2955H65.0462V20.3636H67.1428ZM73.1556 32.1705C72.3033 32.1705 71.5647 31.983 70.9397 31.608C70.3147 31.233 69.8298 30.7083 69.4851 30.0341C69.1442 29.3598 68.9737 28.572 68.9737 27.6705C68.9737 26.7689 69.1442 25.9792 69.4851 25.3011C69.8298 24.6231 70.3147 24.0966 70.9397 23.7216C71.5647 23.3466 72.3033 23.1591 73.1556 23.1591C74.0078 23.1591 74.7465 23.3466 75.3715 23.7216C75.9965 24.0966 76.4794 24.6231 76.8203 25.3011C77.165 25.9792 77.3374 26.7689 77.3374 27.6705C77.3374 28.572 77.165 29.3598 76.8203 30.0341C76.4794 30.7083 75.9965 31.233 75.3715 31.608C74.7465 31.983 74.0078 32.1705 73.1556 32.1705ZM73.1669 30.5227C73.6291 30.5227 74.0154 30.3958 74.326 30.142C74.6366 29.8845 74.8677 29.5398 75.0192 29.108C75.1745 28.6761 75.2522 28.1951 75.2522 27.6648C75.2522 27.1307 75.1745 26.6477 75.0192 26.2159C74.8677 25.7803 74.6366 25.4337 74.326 25.1761C74.0154 24.9186 73.6291 24.7898 73.1669 24.7898C72.6934 24.7898 72.2995 24.9186 71.9851 25.1761C71.6745 25.4337 71.4416 25.7803 71.2862 26.2159C71.1347 26.6477 71.059 27.1307 71.059 27.6648C71.059 28.1951 71.1347 28.6761 71.2862 29.108C71.4416 29.5398 71.6745 29.8845 71.9851 30.142C72.2995 30.3958 72.6934 30.5227 73.1669 30.5227ZM86.5817 23.2727L83.4737 32H81.201L78.0931 23.2727H80.2862L82.2919 29.7557H82.3828L84.3942 23.2727H86.5817ZM91.5149 32.1705C90.6627 32.1705 89.924 31.983 89.299 31.608C88.674 31.233 88.1892 30.7083 87.8445 30.0341C87.5036 29.3598 87.3331 28.572 87.3331 27.6705C87.3331 26.7689 87.5036 25.9792 87.8445 25.3011C88.1892 24.6231 88.674 24.0966 89.299 23.7216C89.924 23.3466 90.6627 23.1591 91.5149 23.1591C92.3672 23.1591 93.1059 23.3466 93.7309 23.7216C94.3559 24.0966 94.8388 24.6231 95.1797 25.3011C95.5244 25.9792 95.6968 26.7689 95.6968 27.6705C95.6968 28.572 95.5244 29.3598 95.1797 30.0341C94.8388 30.7083 94.3559 31.233 93.7309 31.608C93.1059 31.983 92.3672 32.1705 91.5149 32.1705ZM91.5263 30.5227C91.9884 30.5227 92.3748 30.3958 92.6854 30.142C92.996 29.8845 93.2271 29.5398 93.3786 29.108C93.5339 28.6761 93.6115 28.1951 93.6115 27.6648C93.6115 27.1307 93.5339 26.6477 93.3786 26.2159C93.2271 25.7803 92.996 25.4337 92.6854 25.1761C92.3748 24.9186 91.9884 24.7898 91.5263 24.7898C91.0528 24.7898 90.6589 24.9186 90.3445 25.1761C90.0339 25.4337 89.8009 25.7803 89.6456 26.2159C89.4941 26.6477 89.4184 27.1307 89.4184 27.6648C89.4184 28.1951 89.4941 28.6761 89.6456 29.108C89.8009 29.5398 90.0339 29.8845 90.3445 30.142C90.6589 30.3958 91.0528 30.5227 91.5263 30.5227ZM103.468 26.8864V32H101.411V20.3636H103.423V24.7557H103.525C103.729 24.2633 104.046 23.875 104.474 23.5909C104.906 23.303 105.455 23.1591 106.121 23.1591C106.728 23.1591 107.256 23.286 107.707 23.5398C108.157 23.7936 108.506 24.1648 108.752 24.6534C109.002 25.142 109.127 25.7386 109.127 26.4432V32H107.07V26.7614C107.07 26.1742 106.919 25.7178 106.616 25.392C106.317 25.0625 105.896 24.8977 105.354 24.8977C104.991 24.8977 104.665 24.9773 104.377 25.1364C104.093 25.2917 103.87 25.517 103.707 25.8125C103.548 26.108 103.468 26.4659 103.468 26.8864ZM113.735 32.1761C113.182 32.1761 112.684 32.0777 112.241 31.8807C111.801 31.6799 111.453 31.3845 111.195 30.9943C110.942 30.6042 110.815 30.1231 110.815 29.5511C110.815 29.0587 110.906 28.6515 111.087 28.3295C111.269 28.0076 111.517 27.75 111.832 27.5568C112.146 27.3636 112.5 27.2178 112.894 27.1193C113.292 27.017 113.703 26.9432 114.127 26.8977C114.639 26.8447 115.053 26.7973 115.371 26.7557C115.69 26.7102 115.921 26.642 116.065 26.5511C116.212 26.4564 116.286 26.3106 116.286 26.1136V26.0795C116.286 25.6515 116.159 25.3201 115.906 25.0852C115.652 24.8504 115.286 24.733 114.809 24.733C114.305 24.733 113.906 24.8428 113.61 25.0625C113.318 25.2822 113.121 25.5417 113.019 25.8409L111.099 25.5682C111.25 25.0379 111.5 24.5947 111.849 24.2386C112.197 23.8788 112.623 23.6098 113.127 23.4318C113.631 23.25 114.188 23.1591 114.798 23.1591C115.218 23.1591 115.637 23.2083 116.053 23.3068C116.47 23.4053 116.851 23.5682 117.195 23.7955C117.54 24.0189 117.817 24.3239 118.025 24.7102C118.237 25.0966 118.343 25.5795 118.343 26.1591V32H116.366V30.8011H116.298C116.173 31.0436 115.996 31.2708 115.769 31.483C115.546 31.6913 115.264 31.8598 114.923 31.9886C114.585 32.1136 114.19 32.1761 113.735 32.1761ZM114.269 30.6648C114.682 30.6648 115.04 30.5833 115.343 30.4205C115.646 30.2538 115.879 30.0341 116.042 29.7614C116.209 29.4886 116.292 29.1913 116.292 28.8693V27.8409C116.228 27.8939 116.118 27.9432 115.962 27.9886C115.811 28.0341 115.64 28.0739 115.451 28.108C115.262 28.142 115.074 28.1723 114.889 28.1989C114.703 28.2254 114.542 28.2481 114.406 28.267C114.099 28.3087 113.824 28.3769 113.582 28.4716C113.339 28.5663 113.148 28.6989 113.008 28.8693C112.868 29.036 112.798 29.2519 112.798 29.517C112.798 29.8958 112.936 30.1818 113.212 30.375C113.489 30.5682 113.841 30.6648 114.269 30.6648ZM114.099 22.125L115.371 19.5284H117.383L115.639 22.125H114.099ZM120.502 32V20.3636H122.559V24.7159H122.644C122.75 24.5038 122.9 24.2784 123.093 24.0398C123.286 23.7973 123.548 23.5909 123.877 23.4205C124.207 23.2462 124.627 23.1591 125.139 23.1591C125.813 23.1591 126.421 23.3314 126.962 23.6761C127.508 24.017 127.94 24.5227 128.258 25.1932C128.58 25.8598 128.741 26.678 128.741 27.6477C128.741 28.6061 128.584 29.4205 128.269 30.0909C127.955 30.7614 127.527 31.2727 126.985 31.625C126.443 31.9773 125.83 32.1534 125.144 32.1534C124.644 32.1534 124.229 32.0701 123.9 31.9034C123.57 31.7367 123.305 31.536 123.104 31.3011C122.907 31.0625 122.754 30.8371 122.644 30.625H122.525V32H120.502ZM122.519 27.6364C122.519 28.2008 122.599 28.6951 122.758 29.1193C122.921 29.5436 123.154 29.875 123.457 30.1136C123.764 30.3485 124.135 30.4659 124.57 30.4659C125.025 30.4659 125.406 30.3447 125.712 30.1023C126.019 29.8561 126.25 29.5208 126.406 29.0966C126.565 28.6686 126.644 28.1818 126.644 27.6364C126.644 27.0947 126.567 26.6136 126.411 26.1932C126.256 25.7727 126.025 25.4432 125.718 25.2045C125.411 24.9659 125.029 24.8466 124.57 24.8466C124.131 24.8466 123.758 24.9621 123.451 25.1932C123.144 25.4242 122.911 25.7481 122.752 26.1648C122.597 26.5814 122.519 27.072 122.519 27.6364ZM130.489 32V23.2727H132.546V32H130.489ZM131.523 22.0341C131.198 22.0341 130.917 21.9261 130.683 21.7102C130.448 21.4905 130.33 21.2273 130.33 20.9205C130.33 20.6098 130.448 20.3466 130.683 20.1307C130.917 19.911 131.198 19.8011 131.523 19.8011C131.853 19.8011 132.133 19.911 132.364 20.1307C132.599 20.3466 132.717 20.6098 132.717 20.9205C132.717 21.2273 132.599 21.4905 132.364 21.7102C132.133 21.9261 131.853 22.0341 131.523 22.0341ZM139.019 23.2727V24.8636H134.002V23.2727H139.019ZM135.241 21.1818H137.298V29.375C137.298 29.6515 137.339 29.8636 137.423 30.0114C137.51 30.1553 137.623 30.2538 137.764 30.3068C137.904 30.3598 138.059 30.3864 138.229 30.3864C138.358 30.3864 138.476 30.3769 138.582 30.358C138.692 30.339 138.775 30.322 138.832 30.3068L139.178 31.9148C139.068 31.9527 138.911 31.9943 138.707 32.0398C138.506 32.0852 138.26 32.1117 137.968 32.1193C137.453 32.1345 136.989 32.0568 136.576 31.8864C136.163 31.7121 135.835 31.4432 135.593 31.0795C135.354 30.7159 135.237 30.2614 135.241 29.7159V21.1818ZM144.452 32.1705C143.6 32.1705 142.862 31.983 142.237 31.608C141.612 31.233 141.127 30.7083 140.782 30.0341C140.441 29.3598 140.271 28.572 140.271 27.6705C140.271 26.7689 140.441 25.9792 140.782 25.3011C141.127 24.6231 141.612 24.0966 142.237 23.7216C142.862 23.3466 143.6 23.1591 144.452 23.1591C145.305 23.1591 146.043 23.3466 146.668 23.7216C147.293 24.0966 147.776 24.6231 148.117 25.3011C148.462 25.9792 148.634 26.7689 148.634 27.6705C148.634 28.572 148.462 29.3598 148.117 30.0341C147.776 30.7083 147.293 31.233 146.668 31.608C146.043 31.983 145.305 32.1705 144.452 32.1705ZM144.464 30.5227C144.926 30.5227 145.312 30.3958 145.623 30.142C145.934 29.8845 146.165 29.5398 146.316 29.108C146.471 28.6761 146.549 28.1951 146.549 27.6648C146.549 27.1307 146.471 26.6477 146.316 26.2159C146.165 25.7803 145.934 25.4337 145.623 25.1761C145.312 24.9186 144.926 24.7898 144.464 24.7898C143.99 24.7898 143.596 24.9186 143.282 25.1761C142.971 25.4337 142.738 25.7803 142.583 26.2159C142.432 26.6477 142.356 27.1307 142.356 27.6648C142.356 28.1951 142.432 28.6761 142.583 29.108C142.738 29.5398 142.971 29.8845 143.282 30.142C143.596 30.3958 143.99 30.5227 144.464 30.5227Z" fill="white"/>
<rect x="0.932556" y="0.5" width="172" height="51" rx="7.5" stroke="#8B5CF6"/>
</svg>
